# Blender 3.1.0
# www.blender.org
mtllib football_field.mtl
o SketchUp
v 19.000139 0.000000 -32.199913
v -18.999868 0.000000 32.200092
v -18.999868 0.000000 -32.199913
v 19.000139 0.000000 32.200092
v 19.000139 0.000000 32.200092
v 19.000139 0.000000 -32.199913
v -18.999868 0.000000 32.200092
v -18.999868 0.000000 -32.199913
vn -0.0000 -0.0254 -0.0000
vn -0.0000 0.0254 -0.0000
s 0
usemtl material
f 1//1 2//1 3//1
f 2//1 1//1 4//1
usemtl _0083_DarkTurquoise
f 5//2 6//2 7//2
f 8//2 7//2 6//2
o SketchUp.002
v 18.960138 0.000000 -32.186287
v 18.960138 0.100000 32.213718
v 18.960138 0.000000 32.213718
v 18.960138 0.100000 -32.186287
v -19.039869 0.100000 -32.186287
v 18.960138 0.000000 -32.186287
v -19.039869 0.000000 -32.186287
v 18.960138 0.100000 -32.186287
v 18.960138 0.100000 32.213718
v -19.039869 0.000000 32.213718
v 18.960138 0.000000 32.213718
v -19.039869 0.100000 32.213718
v -19.039869 0.100000 -32.186287
v -19.039869 0.000000 32.213718
v -19.039869 0.100000 32.213718
v -19.039869 0.000000 -32.186287
vn 0.0254 -0.0000 -0.0000
vn -0.0000 -0.0000 -0.0254
vn -0.0000 -0.0000 0.0254
vn -0.0254 -0.0000 -0.0000
s 0
usemtl material
f 9//3 10//3 11//3
f 10//3 9//3 12//3
f 13//4 14//4 15//4
f 14//4 13//4 16//4
f 17//5 18//5 19//5
f 18//5 17//5 20//5
f 21//6 22//6 23//6
f 22//6 21//6 24//6
o SketchUp.003
v 4.296965 0.100000 -0.086275
v -4.241647 0.100000 -1.112156
v -4.376703 0.100000 -0.086275
v -3.807080 0.100000 -2.161278
v -3.115784 0.100000 -3.062187
v -2.214869 0.100000 -3.753502
v -1.165731 0.100000 -4.188068
v -0.039868 0.100000 -4.336277
v 1.085993 0.100000 -4.188068
v 2.135130 0.100000 -3.753502
v 3.036045 0.100000 -3.062187
v 3.727341 0.100000 -2.161278
v 4.161907 0.100000 -1.112156
vn -0.0000 0.0254 -0.0000
vt 31.720530 49.376640
vt 17.713619 51.059490
vt 17.492069 49.376640
vt 18.426489 52.780510
vt 19.560509 54.258389
vt 21.038389 55.392410
vt 22.759409 56.105278
vt 24.606298 56.348427
vt 26.453190 56.105278
vt 28.174210 55.392410
vt 29.652090 54.258389
vt 30.786110 52.780510
vt 31.498980 51.059490
s 0
usemtl Vegetation_Grass_Artificial
f 25/1/7 26/2/7 27/3/7
f 26/2/7 25/1/7 28/4/7
f 28/4/7 25/1/7 29/5/7
f 29/5/7 25/1/7 30/6/7
f 30/6/7 25/1/7 31/7/7
f 31/7/7 25/1/7 32/8/7
f 32/8/7 25/1/7 33/9/7
f 33/9/7 25/1/7 34/10/7
f 34/10/7 25/1/7 35/11/7
f 35/11/7 25/1/7 36/12/7
f 36/12/7 25/1/7 37/13/7
o SketchUp.004
v -4.241647 0.100000 1.139580
v 4.296965 0.100000 0.113726
v -4.376703 0.100000 0.113726
v -3.807080 0.100000 2.188728
v -3.115784 0.100000 3.089640
v -2.214869 0.100000 3.780926
v -1.165731 0.100000 4.215496
v -0.039868 0.100000 4.363705
v 1.085993 0.100000 4.215496
v 2.135130 0.100000 3.780926
v 3.036045 0.100000 3.089640
v 3.727341 0.100000 2.188728
v 4.161907 0.100000 1.139580
vn -0.0000 0.0254 -0.0000
vt 17.713619 47.365707
vt 31.720530 49.048557
vt 17.492069 49.048557
vt 18.426489 45.644688
vt 19.560509 44.166809
vt 21.038389 43.032787
vt 22.759409 42.319920
vt 24.606298 42.076771
vt 26.453190 42.319920
vt 28.174210 43.032787
vt 29.652090 44.166809
vt 30.786110 45.644688
vt 31.498980 47.365707
s 0
usemtl Vegetation_Grass_Artificial
f 38/14/8 39/15/8 40/16/8
f 39/15/8 38/14/8 41/17/8
f 39/15/8 41/17/8 42/18/8
f 39/15/8 42/18/8 43/19/8
f 39/15/8 43/19/8 44/20/8
f 39/15/8 44/20/8 45/21/8
f 39/15/8 45/21/8 46/22/8
f 39/15/8 46/22/8 47/23/8
f 39/15/8 47/23/8 48/24/8
f 39/15/8 48/24/8 49/25/8
f 39/15/8 49/25/8 50/26/8
o SketchUp.005
v 2.860128 0.100000 15.913718
v -2.549427 0.100000 15.533143
v -2.939868 0.100000 15.913718
v -2.109548 0.100000 15.210984
v -1.628896 0.100000 14.953586
v -1.116935 0.100000 14.766019
v -0.583759 0.100000 14.651981
v -0.039868 0.100000 14.613718
v 0.504021 0.100000 14.651981
v 1.037197 0.100000 14.766019
v 1.549154 0.100000 14.953586
v 2.029810 0.100000 15.210984
v 2.469688 0.100000 15.533143
vn -0.0000 0.0254 -0.0000
vt 29.363520 23.129919
vt 20.489569 23.754219
vt 19.849079 23.129919
vt 21.211159 24.282700
vt 21.999630 24.704939
vt 22.839460 25.012629
vt 23.714090 25.199699
vt 24.606298 25.262470
vt 25.498508 25.199699
vt 26.373138 25.012629
vt 27.212969 24.704939
vt 28.001440 24.282700
vt 28.723030 23.754219
s 0
usemtl Vegetation_Grass_Artificial
f 51/27/9 52/28/9 53/29/9
f 52/28/9 51/27/9 54/30/9
f 54/30/9 51/27/9 55/31/9
f 55/31/9 51/27/9 56/32/9
f 56/32/9 51/27/9 57/33/9
f 57/33/9 51/27/9 58/34/9
f 58/34/9 51/27/9 59/35/9
f 59/35/9 51/27/9 60/36/9
f 60/36/9 51/27/9 61/37/9
f 61/37/9 51/27/9 62/38/9
f 62/38/9 51/27/9 63/39/9
o SketchUp.006
v -3.139871 0.100000 28.013718
v -5.939870 0.100000 22.113718
v -5.939870 0.100000 28.013718
v 5.860128 0.100000 22.113718
v -2.939868 0.100000 28.013718
v 2.860128 0.100000 28.013718
v 3.060129 0.100000 28.013718
v 5.860128 0.100000 28.013718
vn -0.0000 0.0254 -0.0000
vt 19.521002 3.280840
vt 14.927819 12.959320
vt 14.927819 3.280840
vt 34.284779 12.959320
vt 19.849079 3.280840
vt 29.363520 3.280840
vt 29.691599 3.280840
vt 34.284779 3.280840
s 0
usemtl Vegetation_Grass_Artificial
f 64/40/10 65/41/10 66/42/10
f 65/41/10 64/40/10 67/43/10
f 67/43/10 64/40/10 68/44/10
f 67/43/10 68/44/10 69/45/10
f 67/43/10 69/45/10 70/46/10
f 67/43/10 70/46/10 71/47/10
o SketchUp.007
v 8.860130 0.100000 28.013718
v 6.060131 0.100000 21.913719
v 6.060131 0.100000 28.013718
v -6.139870 0.100000 28.013718
v -8.939869 0.100000 16.113718
v -8.939869 0.100000 28.013718
v -6.139870 0.100000 21.913719
v 8.860130 0.100000 16.113718
vn -0.0000 0.0254 -0.0000
vt 39.206039 3.280840
vt 34.612858 13.287399
vt 34.612858 3.280840
vt 14.599740 3.280840
vt 10.006559 22.801840
vt 10.006559 3.280840
vt 14.599740 13.287399
vt 39.206039 22.801840
s 0
usemtl Vegetation_Grass_Artificial
f 72/48/11 73/49/11 74/50/11
f 75/51/11 76/52/11 77/53/11
f 76/52/11 75/51/11 78/54/11
f 76/52/11 78/54/11 79/55/11
f 79/55/11 78/54/11 73/49/11
f 79/55/11 73/49/11 72/48/11
o SketchUp.008
v 14.760122 0.100000 28.013718
v 9.060129 0.100000 15.913718
v 9.060129 0.100000 28.013718
v -9.139869 0.100000 28.013718
v -14.839869 0.100000 0.113726
v -14.839869 0.100000 28.013718
v -9.139869 0.100000 15.913718
v -4.576706 0.100000 0.113726
v -3.139871 0.100000 15.913718
v -4.434832 0.100000 1.191347
v -3.980286 0.100000 2.288729
v -3.257206 0.100000 3.231043
v -2.314869 0.100000 3.954130
v -2.737802 0.100000 15.477413
v -2.274965 0.100000 15.106194
v -1.217498 0.100000 4.408689
v -1.761786 0.100000 14.808423
v -1.209824 0.100000 14.590803
v -0.039868 0.100000 4.563704
v -0.631509 0.100000 14.458240
v -0.039868 0.100000 14.413720
v 0.551769 0.100000 14.458240
v 1.137756 0.100000 4.408689
v 1.130085 0.100000 14.590803
v 1.682047 0.100000 14.808423
v 2.235130 0.100000 3.954130
v 2.195227 0.100000 15.106194
v 2.658064 0.100000 15.477413
v 3.177465 0.100000 3.231043
v 3.060129 0.100000 15.913718
v 3.900547 0.100000 2.288729
v 4.355093 0.100000 1.191347
v 4.496964 0.100000 0.113726
v 14.760122 0.100000 0.113726
vn -0.0000 0.0254 -0.0000
vt 48.884510 3.280840
vt 39.534119 23.129919
vt 39.534119 3.280840
vt 9.678478 3.280840
vt 0.328084 49.048557
vt 0.328084 3.280840
vt 9.678478 23.129919
vt 17.163980 49.048557
vt 19.521002 23.129919
vt 17.396719 47.280800
vt 18.142359 45.480640
vt 19.328520 43.934818
vt 20.874340 42.748657
vt 20.180559 23.845640
vt 20.939800 24.454599
vt 22.674500 42.003010
vt 21.781630 24.943069
vt 22.687078 25.300060
vt 24.606298 41.748688
vt 23.635759 25.517519
vt 24.606298 25.590549
vt 25.576839 25.517519
vt 26.538099 42.003010
vt 26.525518 25.300060
vt 27.430969 24.943069
vt 28.338249 42.748657
vt 28.272799 24.454599
vt 29.032040 23.845640
vt 29.884079 43.934818
vt 29.691599 23.129919
vt 31.070240 45.480640
vt 31.815880 47.280800
vt 32.048611 49.048557
vt 48.884510 49.048557
s 0
usemtl Vegetation_Grass_Artificial
f 80/56/12 81/57/12 82/58/12
f 83/59/12 84/60/12 85/61/12
f 84/60/12 83/59/12 86/62/12
f 84/60/12 86/62/12 87/63/12
f 87/63/12 86/62/12 88/64/12
f 87/63/12 88/64/12 89/65/12
f 89/65/12 88/64/12 90/66/12
f 90/66/12 88/64/12 91/67/12
f 91/67/12 88/64/12 92/68/12
f 92/68/12 88/64/12 93/69/12
f 92/68/12 93/69/12 94/70/12
f 92/68/12 94/70/12 95/71/12
f 95/71/12 94/70/12 96/72/12
f 95/71/12 96/72/12 97/73/12
f 95/71/12 97/73/12 98/74/12
f 98/74/12 97/73/12 99/75/12
f 98/74/12 99/75/12 100/76/12
f 98/74/12 100/76/12 101/77/12
f 98/74/12 101/77/12 102/78/12
f 102/78/12 101/77/12 103/79/12
f 102/78/12 103/79/12 104/80/12
f 102/78/12 104/80/12 105/81/12
f 105/81/12 104/80/12 106/82/12
f 105/81/12 106/82/12 107/83/12
f 105/81/12 107/83/12 108/84/12
f 108/84/12 107/83/12 109/85/12
f 108/84/12 109/85/12 81/57/12
f 108/84/12 81/57/12 110/86/12
f 110/86/12 81/57/12 111/87/12
f 111/87/12 81/57/12 112/88/12
f 112/88/12 81/57/12 113/89/12
f 113/89/12 81/57/12 80/56/12
o SketchUp.011
v 5.860128 0.100000 -22.086285
v -5.939870 0.100000 -27.986294
v -5.939870 0.100000 -22.086285
v -3.139871 0.100000 -27.986294
v -2.939868 0.100000 -27.986294
v 2.860128 0.100000 -27.986294
v 3.060129 0.100000 -27.986294
v 5.860128 0.100000 -27.986294
vn -0.0000 0.0254 -0.0000
vt 34.284779 85.465881
vt 14.927819 95.144356
vt 14.927819 85.465881
vt 19.521002 95.144356
vt 19.849079 95.144356
vt 29.363520 95.144356
vt 29.691599 95.144356
vt 34.284779 95.144356
s 0
usemtl Vegetation_Grass_Artificial
f 114/90/13 115/91/13 116/92/13
f 115/91/13 114/90/13 117/93/13
f 117/93/13 114/90/13 118/94/13
f 118/94/13 114/90/13 119/95/13
f 119/95/13 114/90/13 120/96/13
f 120/96/13 114/90/13 121/97/13
o SketchUp.012
v -8.939869 0.100000 -16.086292
v -6.139870 0.100000 -21.886284
v -8.939869 0.100000 -27.986294
v 8.860130 0.100000 -16.086292
v 6.060131 0.100000 -21.886284
v 6.060131 0.100000 -27.986294
v 8.860130 0.100000 -27.986294
v -6.139870 0.100000 -27.986294
vn -0.0000 0.0254 -0.0000
vt 10.006559 75.623360
vt 14.599740 85.137794
vt 10.006559 95.144356
vt 39.206039 75.623360
vt 34.612858 85.137794
vt 34.612858 95.144356
vt 39.206039 95.144356
vt 14.599740 95.144356
s 0
usemtl Vegetation_Grass_Artificial
f 122/98/14 123/99/14 124/100/14
f 123/99/14 122/98/14 125/101/14
f 123/99/14 125/101/14 126/102/14
f 126/102/14 125/101/14 127/103/14
f 127/103/14 125/101/14 128/104/14
f 129/105/14 124/100/14 123/99/14
o SketchUp.013
v -4.576706 0.100000 -0.086275
v -14.839869 0.100000 -27.986294
v -14.839869 0.100000 -0.086275
v -9.139869 0.100000 -15.886292
v -3.139871 0.100000 -15.886292
v -4.434832 0.100000 -1.163919
v -3.980286 0.100000 -2.261276
v -3.257206 0.100000 -3.203617
v -2.314869 0.100000 -3.926704
v -2.737802 0.100000 -15.449970
v -2.274965 0.100000 -15.078751
v -1.217498 0.100000 -4.381237
v -1.761786 0.100000 -14.780987
v -1.209824 0.100000 -14.563358
v -0.039868 0.100000 -4.536278
v -0.631509 0.100000 -14.430798
v -0.039868 0.100000 -14.386272
v 1.137756 0.100000 -4.381237
v 0.551769 0.100000 -14.430798
v 1.130085 0.100000 -14.563358
v 1.682047 0.100000 -14.780987
v 2.235130 0.100000 -3.926704
v 2.195227 0.100000 -15.078751
v 2.658064 0.100000 -15.449970
v 3.177465 0.100000 -3.203617
v 3.060129 0.100000 -15.886292
v 9.060129 0.100000 -15.886292
v 3.900547 0.100000 -2.261276
v 4.355093 0.100000 -1.163919
v 4.496964 0.100000 -0.086275
v 14.760122 0.100000 -0.086275
v 9.060129 0.100000 -27.986294
v 14.760122 0.100000 -27.986294
v -9.139869 0.100000 -27.986294
vn -0.0000 0.0254 -0.0000
vt 17.163980 49.376640
vt 0.328084 95.144356
vt 0.328084 49.376640
vt 9.678478 75.295280
vt 19.521002 75.295280
vt 17.396719 51.144398
vt 18.142359 52.944550
vt 19.328520 54.490379
vt 20.874340 55.676529
vt 20.180559 74.579552
vt 20.939800 73.970596
vt 22.674500 56.422180
vt 21.781630 73.482132
vt 22.687078 73.125137
vt 24.606298 56.676510
vt 23.635759 72.907677
vt 24.606298 72.834648
vt 26.538099 56.422180
vt 25.576839 72.907677
vt 26.525518 73.125137
vt 27.430969 73.482132
vt 28.338249 55.676529
vt 28.272799 73.970596
vt 29.032040 74.579552
vt 29.884079 54.490379
vt 29.691599 75.295280
vt 39.534119 75.295280
vt 31.070240 52.944550
vt 31.815880 51.144398
vt 32.048611 49.376640
vt 48.884510 49.376640
vt 39.534119 95.144356
vt 48.884510 95.144356
vt 9.678478 95.144356
s 0
usemtl Vegetation_Grass_Artificial
f 130/106/15 131/107/15 132/108/15
f 131/107/15 130/106/15 133/109/15
f 133/109/15 130/106/15 134/110/15
f 134/110/15 130/106/15 135/111/15
f 134/110/15 135/111/15 136/112/15
f 134/110/15 136/112/15 137/113/15
f 134/110/15 137/113/15 138/114/15
f 134/110/15 138/114/15 139/115/15
f 139/115/15 138/114/15 140/116/15
f 140/116/15 138/114/15 141/117/15
f 140/116/15 141/117/15 142/118/15
f 142/118/15 141/117/15 143/119/15
f 143/119/15 141/117/15 144/120/15
f 143/119/15 144/120/15 145/121/15
f 145/121/15 144/120/15 146/122/15
f 146/122/15 144/120/15 147/123/15
f 146/122/15 147/123/15 148/124/15
f 148/124/15 147/123/15 149/125/15
f 149/125/15 147/123/15 150/126/15
f 150/126/15 147/123/15 151/127/15
f 150/126/15 151/127/15 152/128/15
f 152/128/15 151/127/15 153/129/15
f 153/129/15 151/127/15 154/130/15
f 153/129/15 154/130/15 155/131/15
f 155/131/15 154/130/15 156/132/15
f 156/132/15 154/130/15 157/133/15
f 156/132/15 157/133/15 158/134/15
f 156/132/15 158/134/15 159/135/15
f 156/132/15 159/135/15 160/136/15
f 156/132/15 160/136/15 161/137/15
f 161/137/15 160/136/15 162/138/15
f 163/139/15 131/107/15 133/109/15
o SketchUp.014
v -2.549427 0.100000 -15.505699
v 2.860128 0.100000 -15.886292
v -2.939868 0.100000 -15.886292
v -2.109548 0.100000 -15.183548
v -1.628896 0.100000 -14.926151
v -1.116935 0.100000 -14.738594
v -0.583759 0.100000 -14.624550
v -0.039868 0.100000 -14.586296
v 0.504021 0.100000 -14.624550
v 1.037197 0.100000 -14.738594
v 1.549154 0.100000 -14.926151
v 2.029810 0.100000 -15.183548
v 2.469688 0.100000 -15.505699
vn -0.0000 0.0254 -0.0000
vt 20.489569 74.670967
vt 29.363520 75.295280
vt 19.849079 75.295280
vt 21.211159 74.142502
vt 21.999630 73.720261
vt 22.839460 73.412567
vt 23.714090 73.225494
vt 24.606298 73.162727
vt 25.498508 73.225494
vt 26.373138 73.412567
vt 27.212969 73.720261
vt 28.001440 74.142502
vt 28.723030 74.670967
s 0
usemtl Vegetation_Grass_Artificial
f 164/140/16 165/141/16 166/142/16
f 165/141/16 164/140/16 167/143/16
f 165/141/16 167/143/16 168/144/16
f 165/141/16 168/144/16 169/145/16
f 165/141/16 169/145/16 170/146/16
f 165/141/16 170/146/16 171/147/16
f 165/141/16 171/147/16 172/148/16
f 165/141/16 172/148/16 173/149/16
f 165/141/16 173/149/16 174/150/16
f 165/141/16 174/150/16 175/151/16
f 165/141/16 175/151/16 176/152/16
